<svg xmlns="http://www.w3.org/2000/svg" viewBox="0 0 64 64" fill="none">
  <defs>
    <linearGradient id="nail" x1="0%" y1="0%" x2="100%" y2="100%">
      <stop offset="0%" stop-color="#ff9ec8"/>
      <stop offset="50%" stop-color="#e85d9a"/>
      <stop offset="100%" stop-color="#c73b7a"/>
    </linearGradient>
    <linearGradient id="shine" x1="0%" y1="0%" x2="0%" y2="100%">
      <stop offset="0%" stop-color="#fff" stop-opacity="0.55"/>
      <stop offset="100%" stop-color="#fff" stop-opacity="0"/>
    </linearGradient>
  </defs>
  <rect width="64" height="64" rx="14" fill="#fff5f9"/>
  <path d="M32 8c-8 0-14 6-14 14v18c0 6 4 10 10 12 2 1 4 1 4 1s2 0 4-1c6-2 10-6 10-12V22c0-8-6-14-14-14z" fill="url(#nail)"/>
  <path d="M24 18c2-3 5-5 8-5s6 2 8 5" stroke="url(#shine)" stroke-width="3" stroke-linecap="round"/>
  <circle cx="26" cy="28" r="2.5" fill="#fff" opacity="0.7"/>
  <path d="M18 38c2 4 6 7 14 7s12-3 14-7" stroke="#f8b4d0" stroke-width="1.5" stroke-linecap="round"/>
</svg>
